<svg xmlns="http://www.w3.org/2000/svg" width="65.25" height="87" viewBox="0 0 65.25 87">
  <path id="Icon_awesome-file-alt" data-name="Icon awesome-file-alt" d="M38.063,23.109V0H4.078A4.068,4.068,0,0,0,0,4.078V82.922A4.068,4.068,0,0,0,4.078,87H61.172a4.068,4.068,0,0,0,4.078-4.078V27.188H42.141A4.09,4.09,0,0,1,38.063,23.109Zm10.875,40.1A2.045,2.045,0,0,1,46.9,65.25H18.352a2.045,2.045,0,0,1-2.039-2.039V61.852a2.045,2.045,0,0,1,2.039-2.039H46.9a2.045,2.045,0,0,1,2.039,2.039Zm0-10.875A2.045,2.045,0,0,1,46.9,54.375H18.352a2.045,2.045,0,0,1-2.039-2.039V50.977a2.045,2.045,0,0,1,2.039-2.039H46.9a2.045,2.045,0,0,1,2.039,2.039Zm0-12.234v1.359A2.045,2.045,0,0,1,46.9,43.5H18.352a2.045,2.045,0,0,1-2.039-2.039V40.1a2.045,2.045,0,0,1,2.039-2.039H46.9A2.045,2.045,0,0,1,48.938,40.1ZM65.25,20.713V21.75H43.5V0h1.037a4.075,4.075,0,0,1,2.889,1.189L64.061,17.842A4.065,4.065,0,0,1,65.25,20.713Z" fill="#00fcdb"/>
</svg>
