<svg xmlns="http://www.w3.org/2000/svg" width="96" height="75.79" viewBox="0 0 96 75.79">
  <g id="noun-court-3967705" transform="translate(-84.001 -74.199)">
    <path id="Path_394" data-name="Path 394" d="M144.923,263.807h2.526l-5.658-4.747a6.81,6.81,0,0,1-2.324-4.437,6.508,6.508,0,0,1,1.515-4.85l.1-.1V229.033H133.1v29.1H127.04v-29.1h-7.981v29.1H113v-29.1h-7.981v29.1H98.953v-29.1H90.77v29.1H85.314A1.378,1.378,0,0,0,84,259.575v5.366a1.378,1.378,0,0,0,1.314,1.445h54.558a6.176,6.176,0,0,1,5.052-2.58Z" transform="translate(0 -126.303)" fill="#3db7e4"/>
    <path id="Path_395" data-name="Path 395" d="M86.078,98.087H146.7a1.352,1.352,0,0,0,1.314-1.342V90.761a1.34,1.34,0,0,0-.808-1.238l-30.31-15.168a1.263,1.263,0,0,0-1.212,0L85.371,89.523a1.342,1.342,0,0,0-.808,1.238v5.985a1.72,1.72,0,0,0,1.515,1.342ZM116.387,82.4a4.438,4.438,0,1,1-4.344,4.437A4.359,4.359,0,0,1,116.387,82.4Z" transform="translate(-0.46)" fill="#3db7e4"/>
    <path id="Path_396" data-name="Path 396" d="M416.725,348.772l-.708.826a2.189,2.189,0,0,0,.3,3.1l9.8,8.358a2.084,2.084,0,0,0,3.031-.309l.708-.826a2.189,2.189,0,0,0-.3-3.1l-9.8-8.358A2.173,2.173,0,0,0,416.725,348.772Z" transform="translate(-271.701 -223.341)" fill="#3db7e4"/>
    <path id="Path_397" data-name="Path 397" d="M517.96,251.1a2.084,2.084,0,0,0,3.031-.31l.708-.826a2.189,2.189,0,0,0-.3-3.1l-9.8-8.358a2.084,2.084,0,0,0-3.031.309l-.708.826a2.189,2.189,0,0,0,.3,3.1Z" transform="translate(-346.97 -133.613)" fill="#3db7e4"/>
    <path id="Path_398" data-name="Path 398" d="M480.605,300.625a4.019,4.019,0,0,0-1.515-2.683l-12.427-9.39,2.829-3.508L460.3,277.2l-9.5,11.66,9.194,7.842,2.829-3.508,11.315,10.835a3.734,3.734,0,0,0,2.829,1.032h.1a3.987,3.987,0,0,0,2.627-1.445,3.94,3.94,0,0,0,.91-2.993Z" transform="translate(-300.623 -165.597)" fill="#3db7e4"/>
    <path id="Path_399" data-name="Path 399" d="M416.26,444.584h-3.031v-1.238a2.048,2.048,0,0,0-2.021-2.064H393.225a2.048,2.048,0,0,0-2.02,2.064v1.238h-3.031a1.18,1.18,0,0,0-1.212,1.238v2.373a1.18,1.18,0,0,0,1.212,1.238H416.26a1.18,1.18,0,0,0,1.212-1.238v-2.373A1.242,1.242,0,0,0,416.26,444.584Z" transform="translate(-248.302 -299.444)" fill="#3db7e4"/>
  </g>
</svg>
