<svg xmlns="http://www.w3.org/2000/svg" width="80.11" height="72.147" viewBox="0 0 80.11 72.147">
  <g id="Group_1343" data-name="Group 1343" transform="translate(-3960.281 -10821.971)">
    <g id="noun-child-marriage-3505798" transform="translate(3960.281 10829.3)">
      <path id="Path_341" data-name="Path 341" d="M225.077,35.257a6.808,6.808,0,1,1-6.809-6.808,6.809,6.809,0,0,1,6.809,6.808" transform="translate(-206.567 -28.449)" fill="#1a7596"/>
      <path id="Path_342" data-name="Path 342" d="M501.515,377.827a1.262,1.262,0,0,0-.086-.166Z" transform="translate(-459.23 -332.734)" fill="#1a7596"/>
      <path id="Path_343" data-name="Path 343" d="M499.03,370.44l-.187.086A.649.649,0,0,1,499.03,370.44Z" transform="translate(-456.978 -326.442)" fill="#1a7596"/>
      <path id="Path_344" data-name="Path 344" d="M499.03,370.44l-.187.086A.649.649,0,0,1,499.03,370.44Z" transform="translate(-456.978 -326.442)" fill="#1a7596"/>
      <path id="Path_345" data-name="Path 345" d="M213.507,165.008a23.759,23.759,0,0,1-3.069-7.161c-.677-3.926-2.774-6.181-5.764-6.181H203.6c-2.946,0-5.043,2.255-5.684,6.181a17.231,17.231,0,0,1-1.1,3.415V154.4a5.043,5.043,0,0,0-5.043-5.043h-13.3a5.042,5.042,0,0,0-5.043,5.043v19.618a1.812,1.812,0,0,0,3.624,0V155.831a.49.49,0,1,1,.979,0v39.755a2.932,2.932,0,1,0,5.865,0V179.311a1.232,1.232,0,0,1,2.464,0v16.274a2.939,2.939,0,1,0,5.879,0V155.83a.49.49,0,0,1,.98,0v18.184a1.8,1.8,0,0,0,1.8,1.8,1.773,1.773,0,0,0,.929-.288v5.7a1.268,1.268,0,0,0,2.536,0v-12.8a.354.354,0,0,1,.346-.346.346.346,0,0,1,.346.346v28a2.086,2.086,0,0,0,4.172,0V184.979a.868.868,0,0,1,1.736,0V196.42a2.075,2.075,0,1,0,4.142,0v-28a.353.353,0,0,1,.346-.346.346.346,0,0,1,.346.346v12.4a33.377,33.377,0,0,1,2.536-5.375v-8.033a3.5,3.5,0,0,0-.086-.778,3.708,3.708,0,0,0,1.232-1.246l.108-.216Zm-14.957-7.053c.288-1.7,1.362-5.648,5.043-5.648h1.088c3.739,0,4.827,3.948,5.115,5.648a13.962,13.962,0,0,0,.562,2.039,3.434,3.434,0,0,1-1.181-2.24c-.468-2.723-1.635-4.986-4.323-4.986a2.3,2.3,0,0,1-1.441,0c-2.637,0-3.79,2.262-4.251,4.986a3.422,3.422,0,0,1-1.189,2.255,13.46,13.46,0,0,0,.576-2.053Zm7.759.454a.365.365,0,1,1-.721,0,1.565,1.565,0,0,1,.36-.828A1.748,1.748,0,0,1,206.309,158.409ZM212.138,166a3.546,3.546,0,0,0-3.249-2.161h-9.365a3.532,3.532,0,0,0-2.688,1.232v-2.219c.266-.555.533-1.16.778-1.772h0a4.257,4.257,0,0,0,.85.634c.721.439,2.284.785,5.252.807h.9c3.019,0,4.575-.367,5.331-.807a4.159,4.159,0,0,0,.828-.59,23.867,23.867,0,0,0,2.161,4.193A3.5,3.5,0,0,1,212.138,166Z" transform="translate(-173.428 -133.798)" fill="#1a7596"/>
      <path id="Path_346" data-name="Path 346" d="M463.242,378.408a7.35,7.35,0,0,1-2.161-1.4,6.811,6.811,0,0,1-1.441-1.693c-.317.677-.605,1.354-.836,1.959a3.934,3.934,0,0,0,1.851,1.823h.079a2.159,2.159,0,0,0,1.578.216l.367-.158c.432-.187.872-.389,1.3-.6h0a2.777,2.777,0,0,1-.735-.151Z" transform="translate(-422.09 -330.692)" fill="#1a7596"/>
      <path id="Path_347" data-name="Path 347" d="M457.123,394.447l-.2-.108a4.256,4.256,0,0,1-1.722-1.722c-.043.144-.086.274-.13.4a1.1,1.1,0,0,0-.065.3c-.266.937-.281,1.542,0,1.787h0a.822.822,0,0,0,.526.209,6.623,6.623,0,0,0,2.522-.612A3.032,3.032,0,0,1,457.123,394.447Z" transform="translate(-418.6 -345.766)" fill="#1a7596"/>
      <path id="Path_348" data-name="Path 348" d="M474.321,344.113a.56.56,0,0,1,0-.108.8.8,0,0,0-.079-.245c.231-.281.317-.576.187-.721s-.3-.072-.5,0a1.8,1.8,0,0,0-.093-.158c.231-.043.4-.151.432-.3s-.238-.447-.648-.5a1.2,1.2,0,0,0-.36,0,1.549,1.549,0,0,0,.317-.2c.331-.288.5-.656.36-.821s-.519-.058-.85.231a1.429,1.429,0,0,0-.288.317,1.146,1.146,0,0,0,0-.418c-.043-.411-.259-.721-.483-.663s-.266.216-.31.468a6.287,6.287,0,0,0-.548-.324c.245-.288.339-.6.209-.721s-.526,0-.843.288c-.05.05-.086.1-.13.151l-.137-.036h0a1.04,1.04,0,0,0,0-.209c-.072-.4-.317-.677-.533-.62s-.324.4-.274.778h0a1.714,1.714,0,0,0-.389.108.611.611,0,0,0-.648.144.337.337,0,0,0,.058.36l-.094.123h0a3.706,3.706,0,0,0-.144.36c-.418.721-.864,1.563-1.268,2.428a6.115,6.115,0,0,0,1.268,1.643A7.134,7.134,0,0,0,470.7,347a2.085,2.085,0,0,0,1.211.144A14.99,14.99,0,0,0,473.853,346a.2.2,0,0,0,.115-.043.294.294,0,0,0,.116-.173,1.446,1.446,0,0,0,.317-.872c.259-.058.454-.187.475-.346s-.209-.389-.555-.454Zm-.223-.231a.846.846,0,0,0,.072.216h0a1.482,1.482,0,0,0-.267,0v-.065m-.583-1.138h.331c.043.072.093.144.13.216h0a1.585,1.585,0,0,0-.375.382,1.108,1.108,0,0,0-.13-.447l-.043-.072c0-.058-.05-.108-.072-.158Zm-1.3-.864h0a.631.631,0,0,1,.374-.18.5.5,0,0,1,.411.137.5.5,0,0,1,.13.418.6.6,0,0,1-.18.367.526.526,0,1,1-.721-.721Zm.512,1.607h0a.544.544,0,0,0-.195-.13,1.33,1.33,0,0,0,.086-.31l.043.158v.086h0a1.508,1.508,0,0,0,.05.231Zm-1.218-1.3h0a.863.863,0,0,0-.072-.216h.065a.939.939,0,0,0,.281.116,1.352,1.352,0,0,0-.288.137Zm.425,1.888.158.086h0a1.123,1.123,0,0,0,.3.086,1.342,1.342,0,0,0-.339.116l-.1.05-.13-.13a1.179,1.179,0,0,0-.194-.223,1.469,1.469,0,0,0,.3.05Zm-.663-3.264h0a1.682,1.682,0,0,0,.223-.173,4.062,4.062,0,0,1,.461.252,1.23,1.23,0,0,0-.346-.065h-.266a1.172,1.172,0,0,0-.317.1.987.987,0,0,0,.231-.079Zm-.576-.447h.05a1.294,1.294,0,0,0-.086.166m-.569.382h0a.475.475,0,0,1,.677,0,.482.482,0,0,1-.043.677.489.489,0,0,1-.677,0,.482.482,0,0,1,.043-.655Zm.4,2.032h0a1.1,1.1,0,0,0-.281-.173,1.436,1.436,0,0,0,.173-.245.7.7,0,0,0,0,.166.893.893,0,0,0,.108.273Zm-.591-2.658h0a1.588,1.588,0,0,0,.079.216,1.481,1.481,0,0,0-.274-.18.973.973,0,0,1,.195-.014Zm-.957.54a.947.947,0,0,0,.2.173.91.91,0,0,0,.166.093,1.046,1.046,0,0,0,.3.086,1.321,1.321,0,0,0-.339.116,1.294,1.294,0,0,0-.3.187.722.722,0,0,0-.266.339,1.561,1.561,0,0,1,.238-.994Zm.821,2.882a1.312,1.312,0,0,0-.223.137,4.8,4.8,0,0,1-.721-1.441,2.245,2.245,0,0,1-.086-.4.352.352,0,0,0,.281.116,1.348,1.348,0,0,0,.548-.137,1.853,1.853,0,0,0,.281-.18,1.5,1.5,0,0,0-.159.324,1.21,1.21,0,0,0-.065.533.352.352,0,0,0-.252.158.244.244,0,0,0,0,.2.42.42,0,0,0,.108.2,1.1,1.1,0,0,0,.374.274,1.49,1.49,0,0,0,.288.093,1.863,1.863,0,0,0-.339.108Zm.526.634a2.167,2.167,0,0,0-.1.23l-.137-.137.2-.115.079-.058a.617.617,0,0,1-.051.115Zm.324-1a.49.49,0,0,1,.677-.036.482.482,0,0,1-.043.677.454.454,0,1,1-.634-.641Zm1.772,2.377h0a.485.485,0,0,0,.108.3,4.577,4.577,0,0,1-1.722-.886,1.165,1.165,0,0,0,.13-.23.372.372,0,0,1,.058-.137h0a1.361,1.361,0,0,0,.065-.317,1.117,1.117,0,0,0,.137.3,1.049,1.049,0,0,0,.31.31c.079.2.461.209.857,0a1.937,1.937,0,0,0,.281-.18,1.494,1.494,0,0,0-.159.324,1.334,1.334,0,0,0-.072.555Zm.5-1.715a.475.475,0,0,1,.677,0,.482.482,0,0,1-.043.677.489.489,0,0,1-.677.036.482.482,0,0,1,.036-.677Zm0,2.075h-.137a.627.627,0,0,0,.281-.231,1.524,1.524,0,0,0,.216-.4,1.42,1.42,0,0,0,.065-.317,1.361,1.361,0,0,0,.137.3,1.164,1.164,0,0,0,.266.288.526.526,0,0,0,.3.115,1.542,1.542,0,0,1-1.145.3Zm1.441-.634a.954.954,0,0,0-.108-.418l-.065-.115h0a1.258,1.258,0,0,0-.194-.231,1.179,1.179,0,0,0,.295.058h.26a1.518,1.518,0,0,1-.217.742Z" transform="translate(-429.459 -299.503)" fill="#1a7596"/>
    </g>
    <g id="Group_1409" data-name="Group 1409" transform="translate(3445.166 10640.178)">
      <path id="Path_401" data-name="Path 401" d="M577.917,212.328H562.352a1.7,1.7,0,0,1-1.563-2.616c.7-1.266,1.416-2.518,2.128-3.776q5.671-10.026,11.342-20.051.763-1.349,1.533-2.693a3.009,3.009,0,0,1,.947-1.083,1.829,1.829,0,0,1,2.514.455,11.649,11.649,0,0,1,.99,1.547q7.076,12.343,14.14,24.693c.24.419.479.841.684,1.278a1.581,1.581,0,0,1,.069,1.205,1.56,1.56,0,0,1-1.459,1.038c-.137,0-.275,0-.412,0Zm-.167-28.108-14.619,25.845h29.418Z" fill="#1a7596"/>
      <path id="Path_402" data-name="Path 402" d="M907.885,395.674c-.091.7-.182,1.418-.276,2.134-.285,2.168-.567,4.337-.859,6.5a4.848,4.848,0,0,1-.224,1.053,1.233,1.233,0,0,1-2.366-.144,15.218,15.218,0,0,1-.258-1.578q-.474-3.552-.934-7.106a3.544,3.544,0,0,1-.049-1.332,2.519,2.519,0,0,1,4.915.067C907.861,395.4,907.867,395.529,907.885,395.674Z" transform="translate(-327.496 -202.312)" fill="#1a7596"/>
      <path id="Path_403" data-name="Path 403" d="M924.125,716.139a1.729,1.729,0,1,1-1.728-1.781A1.766,1.766,0,0,1,924.125,716.139Z" transform="translate(-344.522 -509.476)" fill="#1a7596"/>
    </g>
  </g>
</svg>
