<svg xmlns="http://www.w3.org/2000/svg" width="90" height="54" viewBox="0 0 90 54">
  <path id="Icon_awesome-money-bill-alt" data-name="Icon awesome-money-bill-alt" d="M49.5,36H47.25V23.625A1.125,1.125,0,0,0,46.125,22.5h-1.91a3.37,3.37,0,0,0-1.872.567L40.188,24.5a1.124,1.124,0,0,0-.312,1.56l1.249,1.872a1.124,1.124,0,0,0,1.56.312l.066-.044V36H40.5a1.125,1.125,0,0,0-1.125,1.125v2.25A1.125,1.125,0,0,0,40.5,40.5h9a1.125,1.125,0,0,0,1.125-1.125v-2.25A1.125,1.125,0,0,0,49.5,36Zm36-31.5H4.5A4.5,4.5,0,0,0,0,9V54a4.5,4.5,0,0,0,4.5,4.5h81A4.5,4.5,0,0,0,90,54V9A4.5,4.5,0,0,0,85.5,4.5ZM6.75,51.75v-9a9,9,0,0,1,9,9Zm0-31.5v-9h9A9,9,0,0,1,6.75,20.25ZM45,47.25c-7.456,0-13.5-7.052-13.5-15.75S37.544,15.75,45,15.75,58.5,22.8,58.5,31.5,52.453,47.25,45,47.25Zm38.25,4.5h-9a9,9,0,0,1,9-9Zm0-31.5a9,9,0,0,1-9-9h9Z" transform="translate(0 -4.5)" fill="#a18300"/>
</svg>
