<svg xmlns="http://www.w3.org/2000/svg" width="96" height="80.308" viewBox="0 0 96 80.308">
  <g id="noun-abuse-1784960" transform="translate(-84.277 -57.436)">
    <path id="Path_390" data-name="Path 390" d="M487.132,144.933a8.087,8.087,0,1,1-8.441-7.716,8.086,8.086,0,0,1,8.441,7.716" transform="translate(-316.887 -65.372)" fill="#007161"/>
    <path id="Path_391" data-name="Path 391" d="M407.474,162.333c-1.213-3.033-9.1-8.694-12.13-8.694h-10.21c-1.415-.2-6.166-3.437-7.278-4.852a92.146,92.146,0,0,1,.1-10.412,3.289,3.289,0,1,0-6.57-.3c-.2,3.841-.506,10.513.1,12.636.91,2.931,6.874,7.379,11.018,8.9-2.83,6.369-10.614,9.6-14.961,10.917a1.582,1.582,0,0,0-.506,2.83c1.112.91,2.628,2.022,4.448,3.336-1.415,1.213-4.246,4.852-8.794,19.409a3.9,3.9,0,0,0,2.527,4.852,5.085,5.085,0,0,0,1.213.2,4.009,4.009,0,0,0,3.74-2.73c2.022-6.369,4.953-14.051,6.369-15.669.606-.4,1.516-.809,2.426-1.314a16.275,16.275,0,0,1,1.819,1.011c-1.516,1.921-2.527,3.942-2.022,6.166.809,3.639,5.964,8.794,9,11.625a3.742,3.742,0,0,0,2.628,1.011,3.581,3.581,0,0,0,2.83-1.314,4.067,4.067,0,0,0-.2-5.56,42.492,42.492,0,0,1-6.267-6.874c.4-.506,1.011-1.112,1.618-1.819a37.884,37.884,0,0,0,7.076,1.718,1.634,1.634,0,0,0,1.718-1.314c2.123-10.008,1.314-20.42.91-24.261a16.79,16.79,0,0,1,3.538,2.931,34.412,34.412,0,0,1,.2,7.784,3.282,3.282,0,0,0,3.134,3.437h.1a3.238,3.238,0,0,0,3.235-3.134c0-2.326.2-8.087-.809-10.513Z" transform="translate(-228.022 -63.509)" fill="#007161"/>
    <path id="Path_392" data-name="Path 392" d="M222.942,104.4a8.087,8.087,0,1,1-8.914,7.165,8.087,8.087,0,0,1,8.914-7.165" transform="translate(-106.29 -38.448)" fill="#007161"/>
    <path id="Path_393" data-name="Path 393" d="M135.276,89.525a1.653,1.653,0,0,0,1.213-2.022l-.606-2.426a3.627,3.627,0,0,0-1.516-6.166l-4.953-20.217a1.667,1.667,0,1,0-3.234.809l4.953,20.116-5.155,3.538a10.18,10.18,0,0,1-6.066,1.819,20.007,20.007,0,0,1-5.661-.91,15.612,15.612,0,0,1-1.718-.708,24.9,24.9,0,0,0-4.448-1.618c-1.011-.2-1.921-.506-11.625,2.022A11.311,11.311,0,0,0,90.9,87.1l-5.661,6.166a3.663,3.663,0,0,0,.2,5.155,3.954,3.954,0,0,0,2.426,1.011A3.4,3.4,0,0,0,90.5,98.218l5.661-6.166a4.712,4.712,0,0,1,2.022-1.213,13.685,13.685,0,0,1,1.718-.4l-4.953,11.423a6.934,6.934,0,0,0,1.011,7.076l1.415,1.718-1.415,6.066a10.868,10.868,0,0,1-2.224,4.448l-7.178,9.1a4.257,4.257,0,0,0,.707,5.762,4.364,4.364,0,0,0,2.628.91,3.928,3.928,0,0,0,3.235-1.618l7.178-9.1a18.8,18.8,0,0,0,3.74-7.682,12.173,12.173,0,0,1,2.123,5.155l1.314,9.6a4.227,4.227,0,0,0,4.145,3.639h.606a4.107,4.107,0,0,0,3.538-4.65l-1.314-9.6A19.9,19.9,0,0,0,110,112.572l-3.033-3.639,9.1-16.982a19.216,19.216,0,0,0,3.538.3,17.357,17.357,0,0,0,10.614-3.033l2.931-2.022.3,1.112a1.639,1.639,0,0,0,1.618,1.213c-.1.1.1.1.2,0Z" transform="translate(0 0)" fill="#007161"/>
  </g>
</svg>
